<svg width="512" height="512" viewBox="0 0 512 512" fill="none" xmlns="http://www.w3.org/2000/svg">
  <rect width="512" height="512" rx="128" fill="#0F172A"/>
  <path d="M256 448C362.052 448 448 362.052 448 256C448 149.948 362.052 64 256 64C149.948 64 64 149.948 64 256C64 362.052 149.948 448 256 448Z" stroke="#3B82F6" stroke-width="32"/>
  <path d="M256 384C326.692 384 384 326.692 384 256C384 185.308 326.692 128 256 128C185.308 128 128 185.308 128 256C128 326.692 185.308 384 256 384Z" stroke="#3B82F6" stroke-width="16" stroke-opacity="0.5"/>
  <rect x="176" y="300" width="160" height="40" rx="8" fill="#F8FAFC"/>
  <rect x="176" y="236" width="160" height="40" rx="8" fill="#F8FAFC"/>
  <rect x="176" y="172" width="160" height="40" rx="8" fill="#F8FAFC"/>
  <circle cx="380" cy="132" r="24" fill="#EF4444"/>
</svg>

